<svg xmlns="http://www.w3.org/2000/svg" width="10" height="10" viewBox="0 0 10 10"><defs><style>.a{fill:#2773aa;}</style></defs><path class="a" d="M8.929,32H1.071A1.071,1.071,0,0,0,0,33.071v7.857A1.071,1.071,0,0,0,1.071,42H8.929A1.071,1.071,0,0,0,10,40.929V33.071A1.071,1.071,0,0,0,8.929,32ZM5,33.92a.938.938,0,1,1-.937.938A.938.938,0,0,1,5,33.92Zm1.25,5.67a.268.268,0,0,1-.268.268H4.018a.268.268,0,0,1-.268-.268v-.536a.268.268,0,0,1,.268-.268h.268V37.357H4.018a.268.268,0,0,1-.268-.268v-.536a.268.268,0,0,1,.268-.268H5.446a.268.268,0,0,1,.268.268v2.232h.268a.268.268,0,0,1,.268.268Z" transform="translate(0 -32)"/></svg>